<?xml version="1.0" encoding="UTF-8"?>
<svg width="15px" height="22px" viewBox="0 0 15 22" version="1.1" xmlns="http://www.w3.org/2000/svg" xmlns:xlink="http://www.w3.org/1999/xlink">
    <!-- Generator: Sketch 46 (44423) - http://www.bohemiancoding.com/sketch -->
    <title>bitcoin</title>
    <desc>Created with Sketch.</desc>
    <defs></defs>
    <g id="Page-1" stroke="none" stroke-width="1" fill="none" fill-rule="evenodd">
        <g id="coin-drive" transform="translate(-822.000000, -9277.000000)" fill="#FFFFFF">
            <g id="footer" transform="translate(-0.000000, 9185.000000)">
                <g id="soc-icons" transform="translate(595.000000, 89.000000)">
                    <path d="M241.71875,15.078125 C241.968751,15.671878 242.0625,16.3593711 242,17.140625 C241.9375,18.1718802 241.687502,18.9687472 241.25,19.53125 C240.749998,20.1562531 240.04688,20.6406233 239.140625,20.984375 C238.390621,21.2968766 237.468755,21.4687498 236.375,21.5 L236.375,24.5 L234.5,24.5 L234.5,21.5 L233,21.5 L233,24.5 L231.078125,24.5 L231.078125,21.5 L227,21.5 L227.421875,19.25 L228.640625,19.25 C228.921876,19.25 229.109375,19.2343752 229.203125,19.203125 C229.296875,19.1718748 229.375,19.0625009 229.4375,18.875 C229.5,18.6874991 229.53125,18.4218767 229.53125,18.078125 L229.53125,9.96875 C229.53125,9.53124781 229.5,9.25000062 229.4375,9.125 C229.375,9.03124953 229.281251,8.93750047 229.15625,8.84375 C229.0625,8.78124969 228.781252,8.75 228.3125,8.75 L227,8.75 L227,6.5 L231.078125,6.5 L231.078125,3.5 L233,3.5 L233,6.5 L234.5,6.5 L234.5,3.5 L236.375,3.5 L236.375,6.5 C237.187504,6.53125016 237.906247,6.67187375 238.53125,6.921875 C239.250004,7.20312641 239.828123,7.62499719 240.265625,8.1875 C240.609377,8.65625234 240.8125,9.35937031 240.875,10.296875 C240.9375,10.7968775 240.890626,11.2343731 240.734375,11.609375 C240.640625,11.9843769 240.390627,12.3437483 239.984375,12.6875 C239.734374,12.9375013 239.484376,13.1093745 239.234375,13.203125 C239.515626,13.2656253 239.906248,13.4218737 240.40625,13.671875 C241.031253,14.0156267 241.468749,14.484372 241.71875,15.078125 Z M233,9.03125 L233,12.5 L234.5,12.5 L234.5,9.03125 L233,9.03125 Z M233,18.96875 L234.5,18.96875 L234.5,14.75 L233,14.75 L233,18.96875 Z M236.375,9.21875 L236.375,12.3125 C236.562501,12.2187495 236.765624,12.0312514 236.984375,11.75 C237.203126,11.4999987 237.3125,11.1875019 237.3125,10.8125 C237.3125,10.4374981 237.218751,10.1093764 237.03125,9.828125 C236.749999,9.48437328 236.531251,9.28125031 236.375,9.21875 Z M237.734375,17.984375 C238.046877,17.7031236 238.203125,17.2968777 238.203125,16.765625 C238.203125,16.2968727 238.078126,15.9062516 237.828125,15.59375 C237.609374,15.3437487 237.296877,15.1406258 236.890625,14.984375 C236.796875,14.9531248 236.625001,14.9062503 236.375,14.84375 L236.375,18.6875 C236.46875,18.6875 236.578124,18.6562503 236.703125,18.59375 C237.109377,18.4374992 237.453124,18.2343763 237.734375,17.984375 Z" id="bitcoin"></path>
                </g>
            </g>
        </g>
    </g>
</svg>