<?xml version="1.0" encoding="UTF-8"?>
<svg width="55px" height="65px" viewBox="0 0 55 65" version="1.1" xmlns="http://www.w3.org/2000/svg" xmlns:xlink="http://www.w3.org/1999/xlink">
    <!-- Generator: Sketch 46 (44423) - http://www.bohemiancoding.com/sketch -->
    <title>entrepren</title>
    <desc>Created with Sketch.</desc>
    <defs></defs>
    <g id="Page-1" stroke="none" stroke-width="1" fill="none" fill-rule="evenodd">
        <g id="coin-drive" transform="translate(-693.000000, -4102.000000)" fill-rule="nonzero" fill="#FFFFFF">
            <g id="audience" transform="translate(0.000000, 3946.000000)">
                <g id="form" transform="translate(258.000000, 152.000000)">
                    <g id="Group-18" transform="translate(372.000000, 4.000000)">
                        <g id="entrepren" transform="translate(63.000000, 0.000000)">
                            <path d="M47.8739741,43.0665784 L35.8042552,38.0969756 L35.0936854,33.8933687 C38.063365,31.5927891 40.8344678,27.8832317 41.1064143,22.0014917 C45.0566165,13.5125345 41.0121103,7.98966813 40.0882099,6.89151471 C39.6065217,5.67772423 37.1237141,0.666053482 28.8991272,0.666053482 C27.5039061,0.666053482 25.9944436,0.815982924 24.414602,1.11105683 C15.2200593,2.82786857 13.1358008,11.8736781 13.3182282,18.2849561 C13.4962694,23.0232847 15.4910089,27.2376578 15.8997261,28.0550923 C16.9386654,30.0709654 18.4321779,32.1671864 20.58223,33.9497916 L19.9538023,37.6573553 L6.74446014,43.0992757 C6.48627048,43.228869 0.497665866,46.4256359 0.311250934,62.8022375 C0.347138301,63.2598014 0.603334224,64.717626 2.44973923,64.717626 L52.4306728,64.717626 C52.4306728,64.717626 54.3181489,64.781027 54.3821481,62.5883089 C54.1476839,46.3983216 48.2071285,43.2290684 47.8739741,43.0665784 Z M15.8008365,14.677877 C16.3355582,10.1257639 18.3486401,4.56461774 24.8328892,3.35720723 C26.2751625,3.08546011 27.6416737,2.94829062 28.8989278,2.94829062 C36.3152515,2.94829062 37.9381579,7.63557945 38.0007615,7.82518437 L38.0813087,8.0789878 L38.2591505,8.26819397 C38.385155,8.40336972 40.3928538,10.6218071 40.517064,14.5028264 C40.5150702,16.124736 39.8088866,14.4954496 39.8088866,14.4954496 L39.8128741,14.5464894 C39.2590124,13.2473667 38.4898265,12.0086544 37.3723338,11.0799691 C37.3707388,11.0779754 37.3681469,11.0759817 37.3651563,11.074586 C37.1980807,10.9378153 37.0186439,10.8122095 36.8380108,10.689395 C36.1663189,10.338895 35.4667146,10.5438518 35.2340449,10.6289846 C35.2079268,10.6403489 35.18779,10.6477258 35.160077,10.658492 C35.1576845,10.658492 35.1475164,10.6638751 35.1475164,10.6638751 C33.9542615,11.1124671 30.5148562,12.2526885 26.3224142,12.2526885 C24.27185,12.2526885 22.2984436,11.9813402 20.4596148,11.4426309 L20.2544587,11.3822205 L20.0411282,11.400563 C19.7125594,11.4288741 17.6290984,11.7259417 15.8008365,14.677877 Z M15.9322241,20.8578809 C17.1418277,15.0686506 19.5084002,13.9136755 20.1011399,13.7150987 C22.0669701,14.2601879 24.1588048,14.5359225 26.324408,14.5359225 C30.8400356,14.5359225 34.4919739,13.3518388 35.8991574,12.8205064 C38.3709995,14.8461489 38.7725392,19.2393607 38.8349434,20.9653436 C38.8566751,26.9842531 36.0269563,30.5157694 33.1388208,32.5523774 L33.0768154,32.5814861 C30.6558138,34.2656005 28.1929435,34.9295167 27.4048171,35.1103492 C26.8170618,34.9187505 26.2733682,34.6976445 25.743232,34.4643766 C25.5600071,34.3842281 25.3803709,34.2984972 25.2015322,34.2127663 C24.8574122,34.0468869 24.5310365,33.8696432 24.2106421,33.6890101 C24.0292115,33.5831424 23.8412016,33.4846515 23.6643566,33.3771888 C23.247465,33.1162079 22.8535015,32.8444607 22.4802729,32.561748 L22.2322513,32.3733394 C17.3790831,28.542363 16.2051675,22.9228001 15.9322241,20.8578809 Z M29.0319104,40.4649437 C28.939002,40.4848811 28.8474892,40.5159835 28.7529858,40.5323322 C28.4511332,40.5887551 28.1470875,40.6218512 27.842643,40.6218512 C27.5926276,40.6218512 27.3426123,40.5911476 27.0953882,40.5544627 C27.0778433,40.552469 27.0597002,40.550874 27.0423547,40.5470859 L26.8397904,40.510401 C26.6565655,40.4741149 26.4761318,40.4282588 26.2954987,40.3752252 C24.5210678,39.8592447 22.9374381,38.6568185 22.2029433,38.0383596 L22.6467504,35.4329367 C22.6670866,35.4439023 22.6894165,35.4532729 22.7113477,35.4660329 C23.3373828,35.8438471 24.0076791,36.1993314 24.7226352,36.5185296 C24.7320058,36.5221183 24.7389839,36.5275014 24.7483545,36.5310902 C25.4561331,36.8472977 26.2069765,37.1316054 27.0068661,37.3776333 L27.2696413,37.4601742 L27.5395941,37.4143181 C27.6602155,37.3925863 30.1761193,36.9404055 33.0185981,35.3143091 L33.4801495,38.0385589 C33.443664,38.0674682 33.4105679,38.0969756 33.3704937,38.131268 C33.323242,38.1713422 33.268414,38.2138089 33.2173742,38.2574719 C33.1222727,38.3302435 33.0183987,38.4123857 32.9079454,38.4981166 C32.8375663,38.5495552 32.7663897,38.6043831 32.6916243,38.6590116 C32.573196,38.7465369 32.446394,38.8358566 32.3150063,38.9249769 C32.2300729,38.9817985 32.144342,39.0402152 32.0548229,39.1006256 C31.9134666,39.1933346 31.7627396,39.2844487 31.611614,39.3759615 C31.5165124,39.4343781 31.4216103,39.489206 31.3241163,39.5454296 C31.1628225,39.6369424 30.9921581,39.7226733 30.8214938,39.8082048 C30.7202116,39.8576497 30.6189295,39.9106832 30.515853,39.9561405 C30.3352199,40.0386815 30.1482069,40.1114531 29.9603963,40.1824303 C29.8581173,40.2225046 29.7568352,40.2645725 29.6519644,40.3012574 C29.4480045,40.3664528 29.2400571,40.4154988 29.0319104,40.4649437 Z M29.2727545,43.2290684 L29.2727545,45.4405277 L26.2771563,45.4405277 L26.2771563,43.2290684 L29.2727545,43.2290684 Z M21.8528421,62.4355882 L2.59568119,62.4355882 C2.84011403,48.0662867 7.70564345,45.1779518 7.68929476,45.1779518 L16.5116057,41.5447546 L16.4306598,41.6566036 L23.9143719,47.1043059 L21.8528421,62.4355882 Z M23.9947198,44.3403805 L18.8394996,40.5853657 L20.7469131,39.799233 C20.7497043,39.8028217 20.7522962,39.8066099 20.7570812,39.8082048 C21.4092344,40.3592753 22.5660038,41.2369208 23.9871435,41.9211732 C23.9891373,41.9211732 23.9925267,41.9227682 23.9947198,41.9227682 L23.9947198,44.3403805 Z M24.1586054,62.4192395 L26.1344043,47.7247585 L29.4159052,47.7247585 L31.392701,62.4192395 L24.1586054,62.4192395 Z M31.5559885,41.9867674 C32.1682669,41.7020609 32.735686,41.380869 33.2363148,41.0560883 C33.2508691,41.0471165 33.2656228,41.0357522 33.281174,41.0269797 C33.5301924,40.864689 33.7646566,40.7041928 33.977987,40.5472852 C33.9837689,40.5452915 33.9873576,40.5432977 33.9927407,40.5383134 C34.2170368,40.375624 34.4170091,40.2225046 34.5974429,40.0779582 C34.6004335,40.0747682 34.6040222,40.0729739 34.6066141,40.0713789 L36.4027768,40.8096618 L31.5559885,44.3403805 L31.5559885,41.9867674 L31.5559885,41.9867674 Z M33.6970687,62.4355882 L31.6371339,47.1045052 L38.8804007,41.8300592 L46.9291395,45.1430613 C46.9791825,45.1687805 51.8540825,48.0148481 52.0993128,62.4355882 L33.6970687,62.4355882 Z" id="Shape"></path>
                        </g>
                    </g>
                </g>
            </g>
        </g>
    </g>
</svg>