<?xml version="1.0" encoding="UTF-8"?>
<svg width="66px" height="76px" viewBox="0 0 66 76" version="1.1" xmlns="http://www.w3.org/2000/svg" xmlns:xlink="http://www.w3.org/1999/xlink">
    <!-- Generator: Sketch 46 (44423) - http://www.bohemiancoding.com/sketch -->
    <title>Shape</title>
    <desc>Created with Sketch.</desc>
    <defs></defs>
    <g id="Page-1" stroke="none" stroke-width="1" fill="none" fill-rule="evenodd">
        <g id="coin-drive" transform="translate(-694.000000, -2856.000000)" fill-rule="nonzero" fill="#1F1F1F">
            <g id="about-project" transform="translate(0.000000, 2499.000000)">
                <g id="2" transform="translate(1.000000, 0.000000)">
                    <path d="M741.71953,360.594102 C740.910983,360.127288 739.877165,360.404292 739.410351,361.212836 L736.029478,367.068685 C735.562665,367.877229 735.839675,368.91105 736.648221,369.377864 C737.456766,369.844678 738.490585,369.567666 738.957398,368.759122 L742.338273,362.903281 C742.805086,362.094737 742.528076,361.060908 741.71953,360.594102 L741.71953,360.594102 Z M716.065793,357.220101 C715.691093,357.003767 715.236478,356.939522 714.785486,357.060397 C713.883751,357.30202 713.355321,358.217281 713.596897,359.119095 L715.346816,365.649758 C715.588287,366.551412 716.503702,367.079935 717.405436,366.838313 C718.307245,366.596732 718.835675,365.681462 718.594025,364.779614 L716.84418,358.248985 C716.723413,357.798044 716.440347,357.43635 716.065793,357.220101 L716.065793,357.220101 Z M757.468365,381.123887 C757.093811,380.907638 756.639106,380.843418 756.188131,380.964225 L749.657519,382.714131 C748.75567,382.955779 748.227241,383.871049 748.468931,384.772829 C748.710551,385.674559 749.625892,386.203031 750.527553,385.961375 L757.058237,384.211511 C757.960015,383.969821 758.488444,383.054551 758.246827,382.152813 C758.125984,381.701839 757.84314,381.340263 757.468365,381.123887 L757.468365,381.123887 Z M734.957784,372.305784 C725.273975,366.714835 711.579636,368.846576 705.427096,379.503088 C701.547089,386.22346 701.697172,392.004618 702.139347,396.81937 C702.581543,401.634071 703.19808,405.339507 700.930695,409.266729 L695.859388,418.050491 C694.424892,420.535094 695.383735,423.63172 697.715609,424.978069 L698.447594,425.400678 C697.057467,427.808366 697.896048,430.93804 700.303815,432.328171 C702.711604,433.718301 705.841239,432.879676 707.231365,430.471903 L707.96335,430.894512 C710.295203,432.24086 713.456383,431.522931 714.890878,429.038328 L719.962186,420.254566 C722.229572,416.327344 725.746811,415.008635 730.137605,412.984168 C734.528401,410.959702 739.610067,408.199134 743.490087,401.47872 C749.642618,390.822259 744.641593,377.896742 734.957784,372.305784 L734.957784,372.305784 Z M733.267347,375.233713 C741.436836,379.95036 745.720584,390.853676 740.562149,399.788368 C737.104045,405.777922 732.990248,407.956472 728.73596,409.91797 C724.915797,411.679236 720.841979,413.253539 717.970985,417.152954 L704.612332,409.440422 C706.553846,405.004378 705.880354,400.689117 705.49558,396.500131 C705.067079,391.835143 704.896901,387.183155 708.35502,381.193524 C713.513444,372.258875 725.09786,370.517057 733.267347,375.233713 Z M695.535948,372.968951 C694.727401,372.502137 693.693583,372.779149 693.226769,373.587693 C692.759954,374.396246 693.036966,375.430057 693.845512,375.896871 L699.701353,379.277753 C700.509899,379.744567 701.54372,379.467546 702.010534,378.659002 C702.477348,377.850458 702.200337,376.816638 701.391792,376.349824 L695.535948,372.968951 L695.535948,372.968951 Z M748.23855,403.396773 C747.429983,402.929959 746.396175,403.206937 745.929352,404.015558 C745.462551,404.824009 745.739548,405.85788 746.548115,406.324694 L752.403949,409.705567 C753.212493,410.172381 754.246324,409.895318 754.713126,409.086867 C755.179947,408.278247 754.902929,407.24446 754.094385,406.777646 L748.23855,403.396773 Z M703.013405,412.421084 L716.18904,420.028132 L714.498604,422.956053 L701.322969,415.349004 L703.013405,412.421084 L703.013405,412.421084 Z M699.632533,418.276925 L712.808169,425.883973 L711.962962,427.347891 C711.45506,428.227595 710.411596,428.404161 709.653785,427.966591 L699.406045,422.050148 C698.648236,421.612579 698.279423,420.62063 698.787304,419.740927 L699.632533,418.276925 L699.632533,418.276925 Z M701.375511,427.091114 L704.303449,428.781466 C703.820568,429.617894 702.830618,429.883123 701.99425,429.40025 C701.157906,428.917377 700.892652,427.927373 701.375511,427.091114 L701.375511,427.091114 Z" id="Shape"></path>
                </g>
            </g>
        </g>
    </g>
</svg>