<svg xmlns="http://www.w3.org/2000/svg" xmlns:xlink="http://www.w3.org/1999/xlink" width="93" height="93" viewBox="0 0 93 93">
    <defs>
        <circle id="a" cx="46.5" cy="46.5" r="46.5"/>
    </defs>
    <g fill="none" fill-rule="evenodd">
        <mask id="b" fill="#fff">
            <use xlink:href="#a"/>
        </mask>
        <use fill="#205E51" xlink:href="#a"/>
        <g fill-rule="nonzero" mask="url(#b)">
            <path fill="#63F5F8" d="M61.473 42.05c0-7.357-5.92-13.32-13.473-13.32-7.408 0-13.472 5.963-13.472 13.32 0 .239.006.477.019.712l-.02.005c0 3.689 3.11 9.153 4.353 11.202 1.244 2.049 2.28 7.41 2.28 7.41h13.783s.933-5.361 2.177-7.41c1.243-2.05 4.352-7.496 4.352-11.185l-.02-.013c.014-.236.02-.482.02-.721z"/>
            <path fill="#00D2D7" d="M61.473 42.05c0-7.357-5.92-13.32-13.473-13.32v32.65h6.943s.933-5.362 2.177-7.411c1.243-2.05 4.352-7.496 4.352-11.185l-.02-.013c.014-.236.02-.482.02-.721z"/>
            <path fill="#00B9BE" d="M52.213 61.978a.577.577 0 0 1-.582-.563V54.55c0-.363.11-.786.265-1.116l1.303-2.681h-1.558c-.082 0-.245-.007-.286.063l-1.103 1.828c-.178.305-.46.447-.767.432-.308-.014-.572-.217-.721-.536l-.768-1.642-.76 1.63c-.148.32-.41.51-.72.524-.31.014-.588-.152-.767-.456l-1.103-1.78c-.041-.07-.204-.063-.286-.063h-1.563l1.299 2.683c.153.33.273.752.273 1.114v6.865c0 .311-.194.564-.509.564-.314 0-.508-.253-.508-.564V54.55c0-.2-.146-.56-.23-.742l-1.483-3.117c-.14-.3-.142-.6.02-.851.164-.252.433-.38.767-.38h1.934c.49 0 1.026.288 1.272.708l.811 1.373.802-1.726c.268-.578.369-.796.749-.796s.48.214.75.79l.811 1.728.814-1.37c.246-.419.781-.707 1.272-.707h1.934c.335 0 .62.128.782.38.163.253.175.561.034.86l-1.452 3.115c-.085.18-.146.536-.146.735v6.865a.576.576 0 0 1-.58.563z"/>
            <path fill="#088A8E" d="M53.575 49.46h-1.934c-.49 0-1.025.288-1.271.707l-.814 1.378-.811-1.733c-.269-.572-.31-.792-.745-.795V50.9l.764 1.628c.15.32.412.51.721.524.307.015.589-.152.767-.456l1.104-1.78c.04-.07.203-.062.285-.062h1.558l-1.303 2.681c-.155.33-.264.753-.264 1.116v6.83h1.162v-6.83c0-.2.06-.558.146-.739l1.458-3.118c.141-.3.126-.6-.037-.852-.163-.253-.451-.38-.786-.38z"/>
            <path fill="#BDC3C7" d="M41.782 60.805c-1.14 0-2.061.712-2.061 1.84v7.172c0 4.508 3.776 8.197 8.279 8.197V60.805h-6.218z"/>
            <path fill="#94A5A6" d="M54.218 60.805H48v17.209c4.648 0 8.28-3.69 8.28-8.197v-7.173c0-1.127-.922-1.839-2.062-1.839z"/>
            <path fill="#BDC3C7" d="M57.441 65.001v-1.537c0-.282-.347-.505-.632-.505H48v2.585h8.809c.285 0 .632-.261.632-.543z"/>
            <path fill="#ECF0F1" d="M39.191 62.96c-.285 0-.487.222-.487.504V65c0 .282.202.543.487.543H48V62.96h-8.809z"/>
            <path fill="#BDC3C7" d="M56.809 70.283c.285 0 .632-.287.632-.569v-1.537c0-.282-.347-.478-.632-.478H48v2.584h8.809z"/>
            <path fill="#ECF0F1" d="M38.704 68.177v1.537c0 .282.202.57.487.57H48v-2.585h-8.809c-.285 0-.487.196-.487.478z"/>
            <path fill="#F4C342" d="M48.073 23.607a1.52 1.52 0 0 1-1.526-1.537v-4.508a1.52 1.52 0 0 1 1.526-1.537c.858 0 1.525.688 1.525 1.537v4.508a1.52 1.52 0 0 1-1.525 1.537z"/>
            <path fill="#F4C342" d="M48.073 23.607a1.52 1.52 0 0 1-1.526-1.537v-4.508a1.52 1.52 0 0 1 1.526-1.537c.858 0 1.525.688 1.525 1.537v4.508a1.52 1.52 0 0 1-1.525 1.537z"/>
            <path fill="#F89B36" d="M72.354 43.285h-4.56c-.858 0-1.555-.659-1.555-1.508s.697-1.507 1.555-1.507h4.56c.858 0 1.554.658 1.554 1.507 0 .85-.696 1.508-1.554 1.508z"/>
            <path fill="#F89B36" d="M72.354 43.285h-4.56c-.858 0-1.555-.659-1.555-1.508s.697-1.507 1.555-1.507h4.56c.858 0 1.554.658 1.554 1.507 0 .85-.696 1.508-1.554 1.508z"/>
            <path fill="#F4C342" d="M28.206 43.285h-4.56c-.858 0-1.554-.659-1.554-1.508s.696-1.507 1.554-1.507h4.56c.858 0 1.555.658 1.555 1.507 0 .85-.697 1.508-1.555 1.508zM34.004 29.339c-.399 0-.796-.15-1.1-.45L29.68 25.7a1.525 1.525 0 0 1 0-2.174c.607-.6 1.591-.6 2.198 0l3.225 3.188c.607.6.607 1.573 0 2.174-.304.3-.702.45-1.1.45z"/>
            <path fill="#F89B36" d="M61.996 29.339c-.397 0-.795-.15-1.099-.45a1.524 1.524 0 0 1 0-2.173l3.224-3.189c.607-.6 1.592-.6 2.199 0 .607.6.607 1.574 0 2.174l-3.224 3.188c-.304.3-.702.45-1.1.45z"/>
            <path fill="#F89B36" d="M61.996 29.339c-.397 0-.795-.15-1.099-.45a1.524 1.524 0 0 1 0-2.173l3.224-3.189c.607-.6 1.592-.6 2.199 0 .607.6.607 1.574 0 2.174l-3.224 3.188c-.304.3-.702.45-1.1.45z"/>
        </g>
    </g>
</svg>
