<?xml version="1.0" encoding="UTF-8"?>
<svg width="50px" height="48px" viewBox="0 0 50 48" version="1.1" xmlns="http://www.w3.org/2000/svg" xmlns:xlink="http://www.w3.org/1999/xlink">
    <!-- Generator: Sketch 46 (44423) - http://www.bohemiancoding.com/sketch -->
    <title>ion-heart - Ionicons</title>
    <desc>Created with Sketch.</desc>
    <defs>
        <filter x="-4.2%" y="-7.7%" width="108.5%" height="116.7%" filterUnits="objectBoundingBox" id="filter-1">
            <feOffset dx="0" dy="2" in="SourceAlpha" result="shadowOffsetOuter1"></feOffset>
            <feGaussianBlur stdDeviation="7.5" in="shadowOffsetOuter1" result="shadowBlurOuter1"></feGaussianBlur>
            <feColorMatrix values="0 0 0 0 0.105882353   0 0 0 0 0.105882353   0 0 0 0 0.105882353  0 0 0 0.2 0" type="matrix" in="shadowBlurOuter1" result="shadowMatrixOuter1"></feColorMatrix>
            <feMerge>
                <feMergeNode in="shadowMatrixOuter1"></feMergeNode>
                <feMergeNode in="SourceGraphic"></feMergeNode>
            </feMerge>
        </filter>
    </defs>
    <g id="Page-1" stroke="none" stroke-width="1" fill="none" fill-rule="evenodd" fill-opacity="0" opacity="0.5">
        <g id="coin-drive" transform="translate(-153.000000, -8930.000000)" stroke="#1F1F1F" stroke-width="2" fill="#1F1F1F">
            <g id="news" transform="translate(-491.000000, 8556.000000)">
                <g id="1st" filter="url(#filter-1)" transform="translate(623.000000, 170.000000)">
                    <path d="M54.6523438,218.8125 C55.7591201,219.951829 56.3125,221.343416 56.3125,222.987305 C56.3125,224.631193 55.7591201,226.022781 54.6523438,227.162109 L46.15625,236 L37.6601562,227.162109 C36.5533799,226.022781 36,224.631193 36,222.987305 C36,221.343416 36.5533799,219.951829 37.6601562,218.8125 C38.6367236,217.770828 39.8330007,217.25 41.2490234,217.25 C42.6650461,217.25 43.8613232,217.770828 44.8378906,218.8125 L46.15625,220.179688 L47.5234375,218.8125 C48.5000049,217.770828 49.688144,217.25 51.0878906,217.25 C52.4876372,217.25 53.6757764,217.770828 54.6523438,218.8125 Z" id="ion-heart---Ionicons"></path>
                </g>
            </g>
        </g>
    </g>
</svg>