<?xml version="1.0" encoding="UTF-8"?>
<svg width="200px" height="25px" viewBox="0 0 200 25" version="1.1" xmlns="http://www.w3.org/2000/svg" xmlns:xlink="http://www.w3.org/1999/xlink">
    <!-- Generator: Sketch 46 (44423) - http://www.bohemiancoding.com/sketch -->
    <title>logo</title>
    <desc>Created with Sketch.</desc>
    <defs></defs>
    <g id="Page-1" stroke="none" stroke-width="1" fill="none" fill-rule="evenodd">
        <g id="coin-drive" transform="translate(-40.000000, -38.000000)" fill="#FFFFFF">
            <g id="main">
                <g id="top-bar-copy">
                    <g id="logo" transform="translate(35.000000, 2.000000)">
                        <g id="noun_934026_cc" transform="translate(27.316431, 48.206711) rotate(-44.000000) translate(-27.316431, -48.206711) translate(7.816431, 29.206711)">
                            <path d="M5.14241135,18.1110517 C1.55556158,14.5237071 1.55556158,8.68548933 5.14241135,5.09764995 C6.88116015,3.35939595 9.19141006,2.40244086 11.6491122,2.40244086 C14.1073091,2.40244086 16.4175591,3.35939595 18.1548234,5.09764995 L23.6081581,10.3638741 C24.0574421,10.813158 24.785302,10.813158 25.234586,10.3638741 C25.6838699,9.91557969 25.6838699,9.18623543 25.234586,8.73744625 L19.7822409,3.47171695 C17.6100419,1.29902315 14.7213636,0.102087076 11.649607,0.102087076 C8.57785044,0.102087076 5.68966695,1.29902315 3.51697315,3.47171695 C-0.967454974,7.95614507 -0.967454974,15.2530513 3.51697315,19.7374795 L9.19981593,25.2253369 C9.42445792,25.4494841 9.71936238,25.5613103 10.013772,25.5613103 C10.3081817,25.5613103 10.6025914,25.4494841 10.8272333,25.2253369 C11.2765173,24.7765478 11.2765173,24.0476983 10.8272333,23.5989091 L5.14241135,18.1110517 Z" id="Shape" fill-rule="nonzero"></path>
                            <path d="M17.9167673,30.6379932 C14.3299175,27.0506487 14.3299175,21.2124309 17.9167673,17.6245915 C19.6555161,15.8863375 21.965766,14.9293824 24.4234681,14.9293824 C26.8816651,14.9293824 29.191915,15.8863375 30.9291794,17.6245915 L36.6115274,23.1114594 C37.0608113,23.5607434 37.7886712,23.5607434 38.2379552,23.1114594 C38.6872391,22.663165 38.6872391,21.9338208 38.2379552,21.4850316 L32.5565968,15.9986585 C30.3843978,13.8259647 27.4957195,12.6290287 24.4239629,12.6290287 C21.3522064,12.6290287 18.4640229,13.8259647 16.2913291,15.9986585 C11.806901,20.4830866 11.806901,27.7799929 16.2913291,32.264421 L21.7745208,37.5613891 C21.9991628,37.7855363 22.2940673,37.8973625 22.588477,37.8973625 C22.8828866,37.8973625 23.1772963,37.7855363 23.4019383,37.5613891 C23.8512222,37.1125999 23.8512222,36.3837504 23.4019383,35.9349613 L17.9167673,30.6379932 Z" id="Shape" fill-rule="nonzero" transform="translate(25.751463, 25.263196) scale(-1, -1) translate(-25.751463, -25.263196) "></path>
                            <path d="M25.3630345,11.2307386 L25.3630345,11.2307386 L25.3630345,11.2307386 C25.9957905,11.2307386 26.5087406,11.7436887 26.5087406,12.3764447 L26.5087406,22.4013638 L26.5087406,22.4013638 C26.5087406,23.0341198 25.9957905,23.5470699 25.3630345,23.5470699 L25.3630345,23.5470699 L25.3630345,23.5470699 C24.7302785,23.5470699 24.2173284,23.0341198 24.2173284,22.4013638 L24.2173284,12.3764447 L24.2173284,12.3764447 C24.2173284,11.7436887 24.7302785,11.2307386 25.3630345,11.2307386 Z" id="Rectangle" transform="translate(25.363035, 17.388904) rotate(44.000000) translate(-25.363035, -17.388904) "></path>
                            <rect id="Rectangle" transform="translate(11.435749, 23.174184) rotate(44.000000) translate(-11.435749, -23.174184) " x="10.2900433" y="20.3099192" width="2.2914122" height="5.72853049" rx="1.1457061"></rect>
                            <rect id="Rectangle" transform="translate(23.373864, 10.811905) rotate(44.000000) translate(-23.373864, -10.811905) " x="22.2281583" y="7.94763926" width="2.2914122" height="5.72853049" rx="1.1457061"></rect>
                        </g>
                        <g id="noun_934026_cc-copy" transform="translate(114.495882, 48.204921) rotate(-44.000000) translate(-114.495882, -48.204921) translate(80.495882, 15.204921)">
                            <g id="Group-13" transform="translate(41.681304, 39.991934)">
                                <path d="M5.08078285,18.5016609 C1.49393308,14.9143163 1.49393308,9.07609854 5.08078285,5.48825916 C6.81953165,3.75000516 9.12978156,2.79305007 11.5874837,2.79305007 C14.0456806,2.79305007 16.3559306,3.75000516 18.0931949,5.48825916 L23.7755429,10.975127 C24.2248269,11.424411 24.9526867,11.424411 25.4019707,10.975127 C25.8512547,10.5268327 25.8512547,9.79748839 25.4019707,9.34869921 L19.7206124,3.86232615 C17.5484134,1.68963236 14.6597351,0.492696283 11.5879785,0.492696283 C8.51622194,0.492696283 5.62803845,1.68963236 3.45534465,3.86232615 C-1.02908347,8.34675428 -1.02908347,15.6436606 3.45534465,20.1280887 L8.9385364,25.4250567 C9.16317839,25.6492039 9.45808286,25.7610301 9.75249251,25.7610301 C10.0469022,25.7610301 10.3413118,25.6492039 10.5659538,25.4250567 C11.0152378,24.9762675 11.0152378,24.2474181 10.5659538,23.7986289 L5.08078285,18.5016609 Z" id="Shape" fill-rule="nonzero" transform="translate(12.915479, 13.126863) scale(-1, -1) translate(-12.915479, -13.126863) "></path>
                                <path d="M12.5270501,-0.905593775 L12.5270501,-0.905593775 L12.5270501,-0.905593775 C13.1598061,-0.905593775 13.6727562,-0.392643682 13.6727562,0.240112324 L13.6727562,10.2650314 L13.6727562,10.2650314 C13.6727562,10.8977874 13.1598061,11.4107375 12.5270501,11.4107375 L12.5270501,11.4107375 L12.5270501,11.4107375 C11.8942941,11.4107375 11.381344,10.8977874 11.381344,10.2650314 L11.381344,0.240112324 L11.381344,0.240112324 C11.381344,-0.392643682 11.8942941,-0.905593775 12.5270501,-0.905593775 Z" id="Rectangle" transform="translate(12.527050, 5.252572) rotate(44.000000) translate(-12.527050, -5.252572) "></path>
                            </g>
                            <g id="Group-14" transform="translate(0.000000, -0.000000)">
                                <path d="M5.14241135,18.1110517 C1.55556158,14.5237071 1.55556158,8.68548933 5.14241135,5.09764995 C6.88116015,3.35939595 9.19141006,2.40244086 11.6491122,2.40244086 C14.1073091,2.40244086 16.4175591,3.35939595 18.1548234,5.09764995 L23.6081581,10.3638741 C24.0574421,10.813158 24.785302,10.813158 25.234586,10.3638741 C25.6838699,9.91557969 25.6838699,9.18623543 25.234586,8.73744625 L19.7822409,3.47171695 C17.6100419,1.29902315 14.7213636,0.102087076 11.649607,0.102087076 C8.57785044,0.102087076 5.68966695,1.29902315 3.51697315,3.47171695 C-0.967454974,7.95614507 -0.967454974,15.2530513 3.51697315,19.7374795 L9.19981593,25.2253369 C9.42445792,25.4494841 9.71936238,25.5613103 10.013772,25.5613103 C10.3081817,25.5613103 10.6025914,25.4494841 10.8272333,25.2253369 C11.2765173,24.7765478 11.2765173,24.0476983 10.8272333,23.5989091 L5.14241135,18.1110517 Z" id="Shape" fill-rule="nonzero"></path>
                                <rect id="Rectangle" transform="translate(11.435749, 23.174184) rotate(44.000000) translate(-11.435749, -23.174184) " x="10.2900433" y="20.3099192" width="2.2914122" height="5.72853049" rx="1.1457061"></rect>
                                <rect id="Rectangle" transform="translate(23.373864, 10.811905) rotate(44.000000) translate(-23.373864, -10.811905) " x="22.2281583" y="7.94763926" width="2.2914122" height="5.72853049" rx="1.1457061"></rect>
                            </g>
                        </g>
                        <path d="M103.296545,45.2330132 C105.543214,45.2330132 107.404968,46.0475305 108.881862,47.6765895 C110.224493,49.1624345 110.895799,50.9212548 110.895799,52.9531031 C110.895799,54.9939023 110.186453,56.7773371 108.767739,58.3034611 C107.349026,59.829585 105.525313,60.5926356 103.296545,60.5926356 C101.058827,60.5926356 99.2306381,59.829585 97.8119246,58.3034611 C96.3932112,56.7773371 95.6838651,54.9939023 95.6838651,52.9531031 C95.6838651,50.9302057 96.3551705,49.1758607 97.6978016,47.6900157 C99.1746957,46.0520058 101.040925,45.2330132 103.296545,45.2330132 Z M103.296545,47.0724085 C101.739093,47.0724085 100.400957,47.6497312 99.2820983,48.8043939 C98.1632391,49.9590566 97.6038179,51.3553719 97.6038179,52.9933818 C97.6038179,54.0495849 97.8589139,55.0341662 98.3691137,55.9471554 C98.8793135,56.8601445 99.5685205,57.5650152 100.436755,58.0617887 C101.30499,58.5585622 102.258244,58.8069452 103.296545,58.8069452 C104.334846,58.8069452 105.2881,58.5585622 106.156335,58.0617887 C107.02457,57.5650152 107.713777,56.8601445 108.223976,55.9471554 C108.734176,55.0341662 108.989272,54.0495849 108.989272,52.9933818 C108.989272,51.3553719 108.427613,49.9590566 107.304279,48.8043939 C106.180944,47.6497312 104.845046,47.0724085 103.296545,47.0724085 Z M114.471655,39.593991 C114.901297,39.593991 115.268277,39.7461535 115.572607,40.0504832 C115.876937,40.3548129 116.029099,40.7217933 116.029099,41.1514352 C116.029099,41.5721263 115.876937,41.9346312 115.572607,42.2389609 C115.268277,42.5432906 114.901297,42.6954532 114.471655,42.6954532 C114.050964,42.6954532 113.688459,42.5432906 113.384129,42.2389609 C113.0798,41.9346312 112.927637,41.5721263 112.927637,41.1514352 C112.927637,40.7217933 113.0798,40.3548129 113.384129,40.0504832 C113.688459,39.7461535 114.050964,39.593991 114.471655,39.593991 Z M113.531818,45.608948 L115.424918,45.608948 L115.424918,60.2167007 L113.531818,60.2167007 L113.531818,45.608948 Z M118.745676,45.608948 L120.62535,45.608948 L120.62535,48.2270654 C121.377223,47.2245676 122.209642,46.4749432 123.122631,45.9781697 C124.03562,45.4813962 125.029152,45.2330132 126.103257,45.2330132 C127.195264,45.2330132 128.164181,45.5104861 129.010039,46.0654403 C129.855896,46.6203944 130.48021,47.3677812 130.883,48.3076229 C131.285789,49.2474646 131.487181,50.7109105 131.487181,52.6980045 L131.487181,60.2167007 L129.620933,60.2167007 L129.620933,53.2484804 C129.620933,51.5657162 129.549327,50.4423984 129.406113,49.8784934 C129.182341,48.911799 128.761656,48.1845514 128.144046,47.6967288 C127.526436,47.2089062 126.720869,46.9649986 125.727322,46.9649986 C124.590561,46.9649986 123.572415,47.3409296 122.672852,48.092803 C121.773289,48.8446764 121.180303,49.7755533 120.893875,50.8854616 C120.714857,51.6104824 120.62535,52.9351918 120.62535,54.8596296 L120.62535,60.2167007 L118.745676,60.2167007 L118.745676,45.608948 Z" id="oin"></path>
                        <path d="M160.402833,45.0360949 L162.322786,45.0360949 L162.322786,47.1708676 C162.895642,46.3294855 163.499817,45.7006961 164.135329,45.2844804 C164.770841,44.8682648 165.433196,44.6601601 166.122413,44.6601601 C166.641564,44.6601601 167.19651,44.8257488 167.787267,45.1569311 L166.807151,46.7412278 C166.413313,46.5711612 166.082136,46.4861292 165.813609,46.4861292 C165.187048,46.4861292 164.582873,46.743463 164.001067,47.2581382 C163.41926,47.7728134 162.976198,48.5716669 162.671869,49.6547226 C162.439146,50.4871539 162.322786,52.1698929 162.322786,54.7029901 L162.322786,59.6438477 L160.402833,59.6438477 L160.402833,45.0360949 Z M170.042876,39.0211379 C170.472518,39.0211379 170.839498,39.1733005 171.143828,39.4776302 C171.448158,39.7819599 171.60032,40.1489402 171.60032,40.5785821 C171.60032,40.9992732 171.448158,41.3617782 171.143828,41.6661079 C170.839498,41.9704376 170.472518,42.1226001 170.042876,42.1226001 C169.622185,42.1226001 169.25968,41.9704376 168.95535,41.6661079 C168.651021,41.3617782 168.498858,40.9992732 168.498858,40.5785821 C168.498858,40.1489402 168.651021,39.7819599 168.95535,39.4776302 C169.25968,39.1733005 169.622185,39.0211379 170.042876,39.0211379 Z M169.103039,45.0360949 L170.996139,45.0360949 L170.996139,59.6438477 L169.103039,59.6438477 L169.103039,45.0360949 Z M173.506847,45.0360949 L175.507357,45.0360949 L180.39451,55.6696797 L185.241384,45.0360949 L187.25532,45.0360949 L180.569051,59.6438477 L180.233395,59.6438477 L173.506847,45.0360949 Z M202.426975,54.7969738 L204.011272,55.6294009 C203.492121,56.6498005 202.892422,57.4732686 202.212155,58.0998297 C201.531889,58.7263909 200.766601,59.2030177 199.916268,59.5297246 C199.065935,59.8564315 198.10373,60.0197825 197.029625,60.0197825 C194.648693,60.0197825 192.786939,59.2388305 191.444308,57.676903 C190.101677,56.1149756 189.430372,54.3494422 189.430372,52.38025 C189.430372,50.5274192 189.998743,48.8760078 191.135504,47.4259663 C192.576595,45.5820863 194.505479,44.6601601 196.922215,44.6601601 C199.410558,44.6601601 201.397622,45.6044631 202.883467,47.4930975 C203.93967,48.8267776 204.476715,50.4916152 204.494617,52.48766 L191.363751,52.48766 C191.399554,54.188326 191.941074,55.5824036 192.988326,56.6699348 C194.035578,57.7574659 195.32896,58.3012234 196.86851,58.3012234 C197.611433,58.3012234 198.334205,58.1714376 199.036849,57.9118623 C199.739492,57.652287 200.336954,57.3076835 200.829252,56.8780416 C201.32155,56.4483996 201.854119,55.7547173 202.426975,54.7969738 Z M202.426975,50.8630845 C202.176351,49.8605867 201.811608,49.0594955 201.332736,48.459787 C200.853864,47.8600785 200.2206,47.3767385 199.432923,47.0097527 C198.645246,46.6427669 197.817303,46.4592767 196.949068,46.4592767 C195.516928,46.4592767 194.286201,46.9202398 193.256851,47.8421798 C192.504977,48.5134953 191.936606,49.5204535 191.551718,50.8630845 L202.426975,50.8630845 Z" id="rive"></path>
                    </g>
                </g>
            </g>
        </g>
    </g>
</svg>