<svg xmlns="http://www.w3.org/2000/svg" xmlns:xlink="http://www.w3.org/1999/xlink" width="133" height="133" viewBox="0 0 133 133">
    <defs>
        <filter id="a" width="116.2%" height="115.5%" x="-8.1%" y="-7.2%" filterUnits="objectBoundingBox">
            <feOffset dy="2" in="SourceAlpha" result="shadowOffsetOuter1"/>
            <feGaussianBlur in="shadowOffsetOuter1" result="shadowBlurOuter1" stdDeviation="10"/>
            <feColorMatrix in="shadowBlurOuter1" result="shadowMatrixOuter1" values="0 0 0 0 0 0 0 0 0 0 0 0 0 0 0 0 0 0 0.269502944 0"/>
            <feMerge>
                <feMergeNode in="shadowMatrixOuter1"/>
                <feMergeNode in="SourceGraphic"/>
            </feMerge>
        </filter>
        <circle id="b" cx="46.5" cy="46.5" r="46.5"/>
    </defs>
    <g fill="none" fill-rule="evenodd" filter="url(#a)" transform="translate(20 18)">
        <mask id="c" fill="#fff">
            <use xlink:href="#b"/>
        </mask>
        <use fill="#205E51" xlink:href="#b"/>
        <g fill-rule="nonzero" mask="url(#c)">
            <g fill="#707487">
                <path d="M29.933 52.931h-2.55a1.268 1.268 0 0 1-1.274-1.261v-6.306c0-.696.571-1.26 1.275-1.26h2.549v8.827zM63.067 44.103h2.55c.703 0 1.274.565 1.274 1.262v6.305c0 .696-.571 1.261-1.275 1.261h-2.549v-8.828z"/>
            </g>
            <path fill="#E6AF78" d="M58.423 70.77V64H35.577v6.77c0 1.16-.81 2.168-1.957 2.434l-15.706 3.64C15.621 77.373 14 79.39 14 81.71v9.79c0 1.38 1.136 2.5 2.538 2.5h60.924C78.864 94 80 92.88 80 91.5v-9.79c0-2.32-1.62-4.336-3.914-4.867l-15.706-3.64a2.508 2.508 0 0 1-1.957-2.433z"/>
            <path fill="#00D2D7" d="M76.086 76.344L62.066 73C61.027 80.503 54.687 86.282 47 86.282c-7.688 0-14.028-5.78-15.065-13.282l-14.02 3.343C15.62 76.891 14 78.965 14 81.353v10.074C14 92.848 15.136 94 16.538 94h60.924C78.864 94 80 92.848 80 91.427V81.352c0-2.387-1.62-4.461-3.914-5.008z"/>
            <path fill="#D29B6E" d="M35.099 70.82c0 .846-.429 1.606-1.099 2.067 15.094 7.484 24-7.316 24-7.316V64H35.099v6.82z"/>
            <path fill="#F0C087" d="M30 34l1.072 23.964a7.534 7.534 0 0 0 2.947 5.66l5.089 3.876a7.31 7.31 0 0 0 4.43 1.5h4.924a7.31 7.31 0 0 0 4.43-1.5l5.09-3.876a7.535 7.535 0 0 0 2.945-5.66L62 34H30z"/>
            <g fill="#00B9BE">
                <path d="M23.368 85.521l-8.208-7.474a5.172 5.172 0 0 0-1.09 3.183v10.057c0 1.418 1.133 2.568 2.532 2.568h8.866v-3.558a6.46 6.46 0 0 0-2.1-4.776zM70.632 85.521l8.208-7.474a5.172 5.172 0 0 1 1.09 3.183v10.057c0 1.418-1.133 2.568-2.532 2.568h-8.866v-3.558a6.46 6.46 0 0 1 2.1-4.776z"/>
            </g>
            <path fill="#E6AF78" d="M41.068 41.491c8.08-.122 14.925-1.506 20.932-5.772V34H30l1.072 23.964a7.535 7.535 0 0 0 2.947 5.66l5.089 3.876a7.31 7.31 0 0 0 4.43 1.5H46c-2.183-.739-3.93-4.528-4.997-7.509.105.002.21.01.315.01h9.365c1.796 0 3.586-.2 5.34-.596l4.561-1.03c.19-.614.314-1.254.344-1.91l.676-15.115c-.21-.059-.426-.1-.653-.1H39.846v-.014c0-.685.548-1.235 1.222-1.245z"/>
            <path fill="#5A4146" d="M28 32.727V34l1.3 14h2.6l2.6-10.182s16.9 2.546 26-2.545L63.1 48h2.6L67 34v-1.273C67 25.698 61.18 20 54 20H41c-7.18 0-13 5.698-13 12.727z"/>
            <path fill="#515262" d="M61.61 40H31.39c-1.3 0-2.381 1.02-2.48 2.339l-.903 11.937c-.095 1.257.733 2.394 1.941 2.667l6.423 1.454c1.772.4 3.581.603 5.397.603h9.464c1.816 0 3.625-.202 5.397-.603l6.423-1.454c1.208-.273 2.036-1.41 1.94-2.667l-.901-11.937c-.1-1.32-1.18-2.339-2.48-2.339z"/>
            <path fill="#464655" d="M59.025 43h-25.05c-.582 0-1.087.412-1.215.992l-1.73 7.824a1.28 1.28 0 0 0 .733 1.453l7.531 3.234a6.11 6.11 0 0 0 2.412.497h9.588a6.11 6.11 0 0 0 2.412-.497l7.53-3.234a1.28 1.28 0 0 0 .733-1.453l-1.73-7.824A1.252 1.252 0 0 0 59.026 43z"/>
            <path fill="#5B5D6E" d="M34.141 51.103l.99-8.103h-1.16a1.25 1.25 0 0 0-1.214.992l-1.726 7.824a1.28 1.28 0 0 0 .731 1.453l7.52 3.234c.762.328 1.58.497 2.407.497H42l-7.284-4.66a1.282 1.282 0 0 1-.575-1.237z"/>
            <path fill="#D2A073" d="M46 64a9.664 9.664 0 0 1-4.2-.955c-.644-.314-.965-1.225-.716-2.037.25-.813.977-1.214 1.617-.903 2.001.974 4.597.974 6.598 0 .641-.311 1.368.09 1.617.903.249.812-.072 1.723-.716 2.037A9.658 9.658 0 0 1 46 64z"/>
            <path fill="#5B5D6E" d="M58.859 51.103L57.869 43h1.16a1.25 1.25 0 0 1 1.214.992l1.726 7.824a1.28 1.28 0 0 1-.731 1.453l-7.52 3.234a6.094 6.094 0 0 1-2.407.497H51l7.284-4.66c.41-.263.635-.745.575-1.237z"/>
        </g>
    </g>
</svg>
