<?xml version="1.0" encoding="UTF-8"?>
<svg width="24px" height="24px" viewBox="0 0 24 24" version="1.1" xmlns="http://www.w3.org/2000/svg" xmlns:xlink="http://www.w3.org/1999/xlink">
    <!-- Generator: Sketch 46 (44423) - http://www.bohemiancoding.com/sketch -->
    <title>slack</title>
    <desc>Created with Sketch.</desc>
    <defs></defs>
    <g id="Page-1" stroke="none" stroke-width="1" fill="none" fill-rule="evenodd">
        <g id="coin-drive" transform="translate(-702.000000, -9277.000000)" fill-rule="nonzero" fill="#FFFFFF">
            <g id="footer" transform="translate(-0.000000, 9185.000000)">
                <g id="soc-icons" transform="translate(595.000000, 89.000000)">
                    <path d="M118.755181,21.6801796 C119.037668,22.6853016 119.526443,23.9150095 119.623195,24.5506677 C119.941776,26.6428756 116.979047,27.6422326 115.816014,25.9538281 C115.260565,25.146472 115.23575,24.4000247 114.814401,23.081836 C113.330028,23.4919058 112.527435,24.0934751 111.408265,23.9498504 C109.721114,23.7335361 109.282971,21.403207 110.473577,20.3434425 C111.222029,19.6772045 112.440708,19.6917424 113.479167,19.2084817 C113.479167,19.2084817 112.501617,16.13346 111.942659,14.6666335 C110.8275,14.9984993 109.19424,15.696069 108.46985,15.5346479 C107.5883,15.1920041 106.985478,14.481651 107.000266,13.5314222 C107.031598,11.5923638 109.234595,11.4507444 110.6741,10.8599532 C110.318171,9.73201076 109.728634,8.9514746 109.805334,7.72101473 C109.904843,6.13913814 111.781238,5.22299824 113.145297,6.18475715 C113.789728,6.63894197 114.207568,8.29476145 114.614128,9.52396804 L119.089302,8.05488569 C118.577217,6.41686263 117.596909,4.80515823 118.821604,3.57971145 C119.738997,2.66281958 121.35772,2.89467441 122.027968,3.84665782 C122.644076,4.72269311 122.707742,5.78972664 123.029331,6.7186499 C124.239989,6.30482035 125.767223,5.53405969 126.906946,5.92081862 C127.843138,6.23864773 128.293814,7.47537394 128.038899,8.25515814 C127.568672,9.7447941 125.875505,9.94306132 124.365065,10.4586563 L125.834649,15.0005045 C127.089923,14.5891815 127.726334,14.0590486 128.906913,14.0658162 C130.111556,14.0725839 130.866525,14.9405982 130.977565,15.8018449 C131.264062,18.0366749 128.74073,18.2384512 127.170383,18.8071849 C127.653143,20.3685078 128.063714,20.7041334 128.03915,21.9461233 C127.996288,24.0709162 125.312787,24.5626991 124.165043,22.9482375 C123.749209,22.363462 123.644435,21.4252646 123.229603,20.2098439 C123.229603,20.2098439 118.825364,21.7423417 118.755181,21.6801796 Z M121.894119,16.3364897 L120.290937,11.7946415 L115.950113,13.3303978 L117.419196,17.8053213 L121.894119,16.3364897 Z" id="slack"></path>
                </g>
            </g>
        </g>
    </g>
</svg>