<svg xmlns="http://www.w3.org/2000/svg" xmlns:xlink="http://www.w3.org/1999/xlink" width="93" height="93" viewBox="0 0 93 93">
    <defs>
        <circle id="a" cx="46.5" cy="46.5" r="46.5"/>
    </defs>
    <g fill="none" fill-rule="evenodd">
        <mask id="b" fill="#fff">
            <use xlink:href="#a"/>
        </mask>
        <use fill="#205E51" xlink:href="#a"/>
        <g mask="url(#b)">
            <g fill-rule="nonzero" transform="translate(17 28)">
                <path fill="#00D2D7" d="M21 53h27v12H21z"/>
                <path fill="#63F5F8" d="M39 65H21V53h10.604C35.69 53 39 56.21 39 60.172V65z"/>
                <circle cx="32" cy="59" r="3" fill="#00B9BE"/>
                <path fill="#FBCE9D" d="M28.81 12C30.1 11.353 31 9.887 31 8.178 31 5.87 29.363 4 27.344 4 25.848 4 24.565 5.03 24 6.502L28.81 12zM34.81 18C36.1 17.353 37 15.887 37 14.178 37 11.87 35.363 10 33.344 10c-1.496 0-2.779 1.03-3.344 2.502L34.81 18zM40.81 24C42.1 23.353 43 21.887 43 20.178 43 17.87 41.363 16 39.344 16c-1.496 0-2.779 1.03-3.344 2.502L40.81 24z"/>
                <path fill="#FBCE9D" d="M45.81 29C47.1 28.353 48 26.887 48 25.178 48 22.87 46.363 21 44.344 21c-1.496 0-2.779 1.03-3.344 2.502L45.81 29zM24.088 37H12.912C10.76 37 9 35.2 9 33s1.76-4 3.912-4h11.176C26.24 29 28 30.8 28 33s-1.76 4-3.912 4z"/>
                <path fill="#F7B563" d="M46.863 34.568L34.218 47.053c-.996 1.044-2.24 1.469-3.236.424L20.198 36.676h-7.324c-.642.33-2.395-.86-1.723-.256L23.17 48.978c.083.087.178.148.265.227V53h22.231v-5.259C47.687 46.145 49 43.616 49 40.757c-.001-2.208-.851-4.65-2.137-6.19z"/>
                <path fill="#424A60" d="M21.492 3L4 20.491l8.536 8.536c.14-.014.277-.042.42-.042h11.243a3.947 3.947 0 0 1 3.936 3.935 3.947 3.947 0 0 1-3.936 3.935h-3.835L27.509 44 45 26.509 21.492 3z"/>
                <g fill="#E7ECED">
                    <path d="M20.902 3.217L18.432.748a2.554 2.554 0 0 0-3.612 0L1.108 14.46a2.555 2.555 0 0 0 0 3.614l2.469 2.47L20.902 3.216zM47.892 30.209l-3.706-3.707-17.324 17.325 3.705 3.705a2.554 2.554 0 0 0 3.613 0l13.71-13.71a2.553 2.553 0 0 0 .002-3.614z"/>
                </g>
                <circle cx="38" cy="37" r="2" fill="#FFF"/>
                <path fill="#424A60" d="M10 12a.999.999 0 0 1-.707-1.707l2-2a.999.999 0 1 1 1.414 1.414l-2 2A.997.997 0 0 1 10 12z"/>
            </g>
        </g>
    </g>
</svg>
