<?xml version="1.0" encoding="UTF-8"?>
<svg width="24px" height="24px" viewBox="0 0 24 24" version="1.1" xmlns="http://www.w3.org/2000/svg" xmlns:xlink="http://www.w3.org/1999/xlink">
    <!-- Generator: Sketch 46 (44423) - http://www.bohemiancoding.com/sketch -->
    <title>telegram</title>
    <desc>Created with Sketch.</desc>
    <defs></defs>
    <g id="Page-1" stroke="none" stroke-width="1" fill="none" fill-rule="evenodd">
        <g id="coin-drive" transform="translate(-762.000000, -9276.000000)" fill-rule="nonzero" fill="#FFFFFF">
            <g id="footer" transform="translate(-0.000000, 9185.000000)">
                <g id="soc-icons" transform="translate(595.000000, 89.000000)">
                    <path d="M177.233697,16.3848165 C177.558281,16.626607 177.883438,16.8692569 178.208881,17.1116204 C177.869114,17.4468039 177.528774,17.7822739 177.190152,18.117171 C177.158639,18.1495434 177.129132,18.1833483 177.098192,18.2162936 L177.114521,17.9945568 C177.153483,17.4582632 177.192731,16.9211101 177.233697,16.3848165 Z M179.903993,11.6567234 C178.252999,12.6980842 176.602005,13.7423098 174.950152,14.7830976 C174.916634,14.8040107 174.879964,14.8203402 174.842722,14.8372426 C175.059015,15.5288093 175.275309,16.2206625 175.49103,16.9128021 C175.645157,17.3998209 175.805013,17.8856938 175.950833,18.374718 C176.010994,18.577547 176.115273,18.6861235 176.335291,18.647735 C176.396312,17.8200895 176.454754,16.993017 176.517207,16.165085 C176.524369,16.0685407 176.535828,15.970564 176.547574,15.8740197 C176.454181,15.8204476 176.495148,15.7178872 176.52752,15.6840824 C176.58453,15.6253536 176.64154,15.565479 176.69855,15.5058908 C176.71889,15.486983 176.74009,15.4677887 176.759857,15.4488809 C176.788505,15.4190868 176.816294,15.3892927 176.844655,15.3597851 C176.981307,15.2325873 177.117386,15.1030976 177.254038,14.9753268 C177.331961,14.901701 177.410743,14.8277887 177.488953,14.7544494 C177.700949,14.5559176 177.912659,14.3576723 178.12838,14.1622919 C178.676705,13.6638138 179.236204,13.176795 179.785676,12.6803223 C180.486124,12.0466249 181.184852,11.4106356 181.878711,10.7697762 C181.929705,10.6990152 181.96265,10.6079141 182.007341,10.529991 C181.883008,10.546607 181.737189,10.5259803 181.638353,10.5841361 C181.054217,10.9322113 180.479534,11.2940376 179.903993,11.6567234 Z M191,14.0001432 C191,20.6276097 185.627323,26.0002865 178.999857,26.0002865 C172.372104,26.0002865 167,20.6276097 167,14.0001432 C167,7.37239033 172.372104,2 178.999857,2 C185.627323,2 191,7.37239033 191,14.0001432 Z M184.358496,9.21933751 C184.352193,9.17350045 184.34761,9.12651746 184.338442,9.08153984 C184.232731,8.57217547 183.953697,8.41833483 183.454073,8.58936437 C183.380734,8.61400179 183.305676,8.63004476 183.231191,8.65038496 C182.952444,8.76555058 182.676562,8.88873769 182.393805,8.99444942 C181.925121,9.17120859 181.451853,9.3365085 180.979158,9.50696509 C180.690958,9.6270009 180.404763,9.75247986 180.113984,9.86621307 C179.385461,10.1509758 178.655506,10.4302954 177.925837,10.7121934 C176.4241,11.2911728 174.922077,11.8698657 173.419194,12.4488451 C173.081719,12.5791943 172.741379,12.7026679 172.407341,12.8416115 C172.113697,12.9627932 171.814038,13.0802507 171.543599,13.2429722 C171.42385,13.3148791 171.292068,13.503957 171.305819,13.6239928 C171.318997,13.7451746 171.504351,13.8488809 171.617798,13.957171 C171.638424,13.9769382 171.673662,13.9832408 171.703456,13.9924082 C172.499588,14.2387825 173.295721,14.4851567 174.092426,14.7309579 C174.088129,14.8140376 174.097583,14.8988362 174.123653,14.9827753 L174.413286,15.9118353 L174.79402,17.1308147 C174.838711,17.2723366 174.883688,17.4112802 174.927807,17.5502238 C175.036097,17.8897046 175.148684,18.2403581 175.250958,18.5835631 C175.473841,19.3281289 176.074879,19.3857117 176.25393,19.3857117 C176.280573,19.3857117 176.308935,19.3839928 176.33701,19.3828469 C176.364512,19.3839928 176.392014,19.3848523 176.41923,19.3848523 C176.879033,19.3848523 177.174396,19.1316025 177.350295,18.9800537 C177.382668,18.951692 177.413608,18.9256222 177.435953,18.9084333 C177.472337,18.8812175 177.506428,18.8517099 177.535649,18.8187645 C177.558568,18.7949866 177.579481,18.7703491 177.602113,18.7468577 C177.639069,18.7056043 177.673733,18.6669293 177.704387,18.6365622 C177.971674,18.3718532 178.238389,18.1080036 178.506249,17.8438675 L178.823671,17.5307431 C178.868362,17.5616831 178.913053,17.5923366 178.95803,17.6229902 C179.680251,18.1621486 180.401325,18.7038854 181.126124,19.2401791 C181.667001,19.6401074 182.045157,19.5364011 182.307001,18.9253357 C182.418442,18.4099552 182.529311,17.8934288 182.639893,17.3791943 C182.741307,16.8649597 182.841576,16.3521576 182.941844,15.8390689 C183.006303,15.557171 183.069902,15.2744136 183.1335,14.9928021 C183.302525,14.198675 183.471262,13.4036885 183.639427,12.6092748 C183.694145,12.3557386 183.747717,12.1024888 183.802149,11.8489526 C183.815327,11.7887914 183.831083,11.7283438 183.843115,11.6676097 C184.015577,10.8514235 184.186893,10.0358102 184.358496,9.21933751 Z" id="telegram"></path>
                </g>
            </g>
        </g>
    </g>
</svg>