<?xml version="1.0" encoding="UTF-8"?>
<svg width="51px" height="74px" viewBox="0 0 51 74" version="1.1" xmlns="http://www.w3.org/2000/svg" xmlns:xlink="http://www.w3.org/1999/xlink">
    <!-- Generator: Sketch 46 (44423) - http://www.bohemiancoding.com/sketch -->
    <title>trader</title>
    <desc>Created with Sketch.</desc>
    <defs></defs>
    <g id="Page-1" stroke="none" stroke-width="1" fill="none" fill-rule="evenodd">
        <g id="coin-drive" transform="translate(-944.000000, -4098.000000)">
            <g id="audience" transform="translate(0.000000, 3946.000000)">
                <g id="form" transform="translate(258.000000, 152.000000)">
                    <g id="Group-16" transform="translate(663.000000, 0.000000)">
                        <g id="trader" transform="translate(23.000000, 0.000000)">
                            <path d="M43.3051087,48.4479775 L32.4913599,43.9955096 L31.8547317,40.2293284 C34.5153876,38.1681462 36.9981306,34.8446038 37.2417784,29.5749153 C40.7809242,21.9693156 37.1572876,17.0211565 36.329528,16.0372765 C35.8979641,14.9497926 33.6735164,10.4596343 26.3047767,10.4596343 C25.0547418,10.4596343 23.7023534,10.5939621 22.2869094,10.8583307 C14.0491472,12.3964917 12.1817758,20.5009979 12.3452199,26.2451209 C12.5047342,30.490381 14.2919019,34.2662081 14.6580882,34.9985806 C15.5889158,36.8046828 16.9270141,38.6827719 18.8533325,40.2798799 L18.2902988,43.601636 L6.45551552,48.4772724 C6.22419297,48.5933802 0.858760157,51.4574928 0.691743488,66.1299518 C0.72389643,66.5399018 0.953432707,67.8460257 2.60770155,67.8460257 L47.3876391,67.8460257 C47.3876391,67.8460257 49.0787052,67.9028293 49.1360447,65.9382845 C48.9259788,51.4330208 43.6035952,48.5935588 43.3051087,48.4479775 Z M14.5694889,23.013393 C15.0485678,18.934971 16.8521692,13.9525155 22.6616698,12.8707476 C23.9538608,12.6272784 25.1781734,12.5043827 26.3045981,12.5043827 C32.9491821,12.5043827 34.4032096,16.7039142 34.4592986,16.8737889 L34.5314641,17.1011816 L34.6907998,17.2706991 C34.8036923,17.3918085 36.6024708,19.3793961 36.7137557,22.8565581 C36.7119694,24.3096925 36.079271,22.8499489 36.079271,22.8499489 L36.0828435,22.8956776 C35.5866165,21.7317411 34.8974717,20.6219287 33.8962649,19.789882 C33.8948358,19.7880958 33.8925137,19.7863095 33.8898343,19.7850591 C33.7401445,19.6625207 33.5793798,19.5499854 33.4175433,19.4399508 C32.8157474,19.1259238 32.1889437,19.3095528 31.9804854,19.3858267 C31.9570852,19.3960085 31.9390439,19.4026177 31.9142146,19.4122636 C31.9120711,19.4122636 31.9029611,19.4170865 31.9029611,19.4170865 C30.8338758,19.8189983 27.7523736,20.8405687 23.9961955,20.8405687 C22.1590122,20.8405687 20.3909576,20.5974567 18.7434766,20.1148054 L18.559669,20.0606812 L18.3685376,20.077115 C18.0741596,20.1024801 16.2075027,20.368635 14.5694889,23.013393 Z M14.6872044,28.5503082 C15.7709372,23.3635029 17.8912451,22.328714 18.4223045,22.1508011 C20.1835712,22.6391685 22.0577304,22.8862103 23.9979818,22.8862103 C28.043715,22.8862103 31.315634,21.8253419 32.5763866,21.3492997 C34.7910098,23.1641546 35.1507655,27.1002105 35.2066759,28.6465884 C35.2261463,34.0391726 32.6908868,37.2032007 30.1032895,39.0278801 L30.0477364,39.0539597 C27.8786632,40.5628258 25.6720783,41.1576552 24.965964,41.3196703 C24.4393702,41.1480093 23.9522532,40.9499115 23.4772828,40.7409174 C23.3131241,40.6691091 23.1521808,40.5922993 22.991952,40.5154895 C22.683641,40.3668715 22.3912279,40.2080717 22.1041735,40.0462352 C21.9416226,39.951384 21.7731769,39.8631421 21.6147343,39.7668619 C21.2412243,39.5330385 20.8882565,39.2895693 20.5538659,39.0362756 L20.3316533,38.8674726 C15.9835039,35.4351461 14.9317454,30.4003527 14.6872044,28.5503082 Z M26.4237426,46.1170678 C26.3405022,46.1349306 26.2585122,46.1627965 26.1738428,46.1774439 C25.9034008,46.2279955 25.630994,46.2576476 25.3582299,46.2576476 C25.134231,46.2576476 24.9102322,46.230139 24.6887342,46.1972716 C24.6730149,46.1954853 24.6567599,46.1940563 24.6412193,46.1906623 L24.4597338,46.1577949 C24.2955751,46.1252847 24.1339173,46.0842004 23.9720808,46.0366855 C22.3822965,45.5743976 20.9634586,44.4970955 20.3053951,43.9429931 L20.7030198,41.6086895 C20.7212398,41.6185141 20.7412461,41.6269095 20.7608951,41.6383417 C21.3217853,41.9768407 21.9223308,42.2953335 22.5628888,42.581316 C22.5712843,42.5845313 22.5775363,42.5893543 22.5859318,42.5925696 C23.2200592,42.8758727 23.8927702,43.1305954 24.6094236,43.3510217 L24.8448546,43.4249735 L25.0867161,43.3838892 C25.1947857,43.3644188 27.4488856,42.9592917 29.9955772,41.5024062 L30.4090997,43.9431717 C30.3764109,43.9690727 30.3467587,43.9955096 30.3108546,44.0262335 C30.2685199,44.0621376 30.2193974,44.1001853 30.1736687,44.1393047 C30.0884634,44.2045037 29.9953985,44.2780982 29.8964389,44.354908 C29.8333834,44.4009939 29.7696134,44.4501164 29.7026281,44.4990604 C29.5965234,44.5774778 29.4829164,44.6575029 29.3652009,44.7373494 C29.2891056,44.7882582 29.2122958,44.8405961 29.1320921,44.8947202 C29.0054452,44.9777819 28.8704028,45.0594147 28.7350032,45.1414047 C28.6497979,45.1937425 28.5647713,45.2428651 28.4774224,45.293238 C28.3329128,45.375228 28.1800077,45.4520378 28.0271026,45.528669 C27.9363599,45.5729686 27.8456171,45.6204835 27.7532668,45.6612106 C27.5914303,45.7351623 27.4238777,45.8003614 27.2556107,45.8639527 C27.1639748,45.8998569 27.073232,45.9375472 26.979274,45.9704147 C26.7965381,46.0288259 26.6102297,46.0727682 26.4237426,46.1170678 Z M26.6395246,48.5935588 L26.6395246,50.5748946 L23.9556471,50.5748946 L23.9556471,48.5935588 L26.6395246,48.5935588 Z M19.9917253,65.8014559 L2.73845685,65.8014559 C2.9574541,52.9274181 7.31667847,50.3396422 7.30203102,50.3396422 L15.2062958,47.0845141 L15.1337731,47.1847241 L21.8387332,52.0655406 L19.9917253,65.8014559 Z M21.91072,49.5892283 L17.29195,46.2249588 L19.0008788,45.5206308 C19.0033796,45.5238461 19.0057017,45.52724 19.0099888,45.528669 C19.5942792,46.0223953 20.6306757,46.8087133 21.9039322,47.4217628 C21.9057184,47.4217628 21.9087551,47.4231918 21.91072,47.4231918 L21.91072,49.5892283 Z M22.0575518,65.7868085 L23.8277498,52.6214293 L26.7677791,52.6214293 L28.5388703,65.7868085 L22.0575518,65.7868085 Z M28.6851662,47.4805312 C29.2337311,47.2254512 29.7421048,46.9376824 30.1906383,46.6466982 C30.2036782,46.63866 30.2168966,46.6284782 30.2308295,46.6206186 C30.4539352,46.4752159 30.6640011,46.3314208 30.8551325,46.190841 C30.8603127,46.1890547 30.863528,46.1872684 30.8683509,46.1828027 C31.0693068,46.0370427 31.2484701,45.8998569 31.410128,45.7703519 C31.4128074,45.7674939 31.4160227,45.7658863 31.4183448,45.7644572 L33.0275996,46.4259147 L28.6851662,49.5892283 L28.6851662,47.4805312 L28.6851662,47.4805312 Z M30.6034464,65.8014559 L28.7578675,52.0657193 L35.2474029,47.34013 L42.4585932,50.3083824 C42.5034287,50.3314253 46.8710485,52.8813322 47.0907603,65.8014559 L30.6034464,65.8014559 Z" id="Combined-Shape" fill="#FFFFFF" fill-rule="nonzero"></path>
                            <rect id="Rectangle" fill="#368A78" x="28.6917435" y="42.2306865" width="20.5195829" height="25.615509"></rect>
                            <path d="M25,2 C38.025688,6.66666667 44.6923547,9 45,9 C45.3076453,9 44.6409786,10.6666667 43,14 L39.916518,20.1504609 L36.2247746,22.9192685 L28.3798196,25.6880762 L20.0733968,25.2266082 L14.5357816,23.3807365 C12.1785939,21.7935788 10.6666667,20.6666667 10,20 C9.33333333,19.3333333 8.33333333,15.6666667 7,9 L25,2 Z" id="Path-4" fill="#368A78"></path>
                            <g id="licence" transform="translate(29.220249, 43.230686)" stroke="#FFFFFF" fill-rule="nonzero" stroke-width="0.3" fill="#FFFFFF">
                                <path d="M17.1461187,25.1271808 C17.1461187,24.1250227 17.9615035,23.3096379 18.9636616,23.3096379 L19.3750566,23.3096379 L19.3750566,4.18882339 L18.9636616,4.18882339 C17.9615035,4.18882339 17.1461187,3.37343859 17.1461187,2.3708691 L17.1461187,1.95947415 L4.26452006,1.95947415 L4.26452006,2.3708691 C4.26452006,3.37343859 3.44913526,4.18882339 2.44656577,4.18882339 L2.03517082,4.18882339 L2.03517082,23.3096379 L2.44656577,23.3096379 C3.44913526,23.3096379 4.26452006,24.1250227 4.26452006,25.1271808 L4.26452006,25.5385757 L7.58365452,25.5385757 L7.64412957,24.7157858 L5.05480976,24.7157858 C4.87790993,23.5885637 3.98477149,22.6958366 2.85754933,22.5189368 L2.85754933,4.97993587 C3.98477149,4.80262465 4.87790993,3.90989761 5.05480976,2.78226405 L16.3550063,2.78226405 C16.5319061,3.90989761 17.4246331,4.80262465 18.5518553,4.97993587 L18.5518553,22.5189368 C17.4246331,22.6958366 16.5319061,23.5885637 16.3550063,24.7157858 L13.7356546,24.7157858 L13.804769,25.5385757 L17.1457073,25.5385757 L17.1457073,25.1271808 L17.1461187,25.1271808 Z" id="Shape"></path>
                                <path d="M13.2851771,23.2598591 C13.6249894,23.101472 14.0483148,22.905648 14.1980625,22.4346008 C14.3449305,21.9651992 14.0010043,21.6397858 13.7730915,21.425449 C13.6904012,21.3468726 13.5505269,21.2148148 13.5377736,21.1572195 C13.5065076,21.0189908 13.5571092,20.8100022 13.6060652,20.6084186 C13.6945151,20.2435113 13.8051804,19.7897427 13.5295457,19.3791705 C13.4275198,19.2281886 13.2259363,19.0479976 12.8416934,19.0479976 C12.727737,19.0479976 12.6022615,19.064042 12.4751405,19.0825548 C12.3167534,19.1051815 12.1201066,19.1002448 12.1184611,19.099422 C11.99134,19.0385355 11.8654532,18.8760345 11.7321612,18.7040714 C11.5021914,18.4074557 11.2162719,18.038023 10.7242436,17.9968835 L10.6645913,17.9944151 C10.2124682,17.9944151 9.98537824,18.380715 9.83439629,18.6366026 C9.77597821,18.7353374 9.678889,18.9003068 9.62581905,18.9258133 C9.52214752,18.9755921 9.36581744,18.9829972 9.21236712,18.9829972 L8.92809321,18.979706 C8.56195171,18.979706 8.18346835,19.0224911 7.89384631,19.328569 C7.55814803,19.6877167 7.72723135,20.1303777 7.83913078,20.4228795 C7.87985888,20.5298422 7.94856184,20.708799 7.9349858,20.7668057 C7.90330839,20.9050344 7.77289619,21.0634215 7.63507888,21.2312706 C7.39688121,21.521304 7.10067684,21.8829202 7.17020259,22.371246 C7.24137392,22.8583376 7.69267418,23.0010917 7.99134691,23.0969467 C8.10036657,23.1315039 8.28261454,23.1895106 8.31964008,23.2359982 C8.40809,23.3470748 8.45293205,23.5564749 8.49653991,23.7605268 C8.50723618,23.8119511 8.51916663,23.8650211 8.53191988,23.9189138 L8.02055595,30.29389 L8.65122441,30.015787 C9.03217614,29.8479378 9.40901391,29.6784431 9.78009216,29.5097712 C10.0878156,29.3698969 10.3926592,29.2267315 10.6950345,29.0848002 C10.9961756,29.2271429 11.3014307,29.3698969 11.6091541,29.5097712 C11.9802324,29.6784431 12.3587157,29.8479378 12.7396674,30.015787 L13.3711587,30.29389 L12.8289401,23.5338481 C12.9227382,23.4301766 13.1049861,23.3433723 13.2851771,23.2598591 Z M11.9506119,28.7597982 C11.5865274,28.5944174 11.2265568,28.4253341 10.8711116,28.257485 L10.6954459,28.1747946 L10.5201917,28.257485 C10.164335,28.4253341 9.80436446,28.594006 9.43986853,28.760621 C9.27777892,28.8338493 9.11486652,28.907489 8.95113133,28.9815401 L9.27777892,24.9087301 C9.33784258,24.9247745 9.40078601,24.9338252 9.46455223,24.9338252 C9.74471219,24.9338252 9.97427057,24.7803748 10.1770883,24.6446145 C10.2717091,24.5812597 10.4313304,24.474297 10.4909826,24.474297 C10.6325025,24.474297 10.8250353,24.5705634 11.0109858,24.6631273 C11.2615254,24.7886027 11.5449765,24.9297112 11.8625734,24.9297112 C11.9477322,24.9297112 12.0312453,24.9153124 12.1122901,24.8943312 L12.4409947,28.9819515 C12.2768481,28.9087232 12.1127015,28.8346721 11.9506119,28.7597982 Z M12.1698854,23.0356489 C11.9769412,23.2775491 11.9514347,23.5852725 11.9304536,23.8321095 C11.9230485,23.918091 11.9127636,24.0419209 11.8950736,24.1044529 C11.7720665,24.1246113 11.5729514,24.0234081 11.3783615,23.9267303 C11.1204169,23.7975523 10.8270923,23.6510957 10.491394,23.6510957 C10.182025,23.6510957 9.92572597,23.822236 9.72002849,23.9604647 C9.64803438,24.0077751 9.54518564,24.0768895 9.48553337,24.1019846 C9.3933809,24.016003 9.34895025,23.8078372 9.30205122,23.5885637 C9.24198756,23.3055239 9.1732846,22.9850473 8.96388457,22.7225773 C8.77135174,22.4814999 8.47761574,22.3877018 8.24188644,22.3128279 C8.15960745,22.2864986 8.0415371,22.2486503 7.9843532,22.2182071 C7.99422668,22.0919088 8.12957562,21.9273509 8.27191827,21.7537422 C8.45498902,21.5303547 8.66274347,21.2773468 8.73761735,20.9502879 C8.8067317,20.6491467 8.69647786,20.3603475 8.60843934,20.1291435 C8.57758472,20.0489215 8.53315406,19.9329081 8.5220464,19.8687305 C8.58992656,19.8222429 8.71046529,19.8029073 8.92850461,19.8029073 L9.21277852,19.8061985 C9.46331804,19.8061985 9.73072476,19.7893313 9.98332126,19.6679698 C10.2614242,19.533855 10.4181657,19.2676825 10.5432298,19.0549913 C10.587249,18.9801174 10.6501925,18.8735661 10.6929776,18.8250215 C10.8135163,18.8620471 10.9439285,19.030719 11.0813344,19.2084416 C11.2582342,19.4367658 11.4589949,19.696356 11.7613702,19.8415785 C11.9831121,19.9485411 12.283019,19.9403132 12.5907425,19.8979396 C12.6870089,19.8843635 12.8021995,19.8683191 12.8639087,19.8720217 C12.9087508,19.9892692 12.858972,20.1966123 12.805902,20.4142402 C12.7376105,20.6956344 12.6602682,21.0136427 12.7351421,21.3407017 C12.8034336,21.6418428 13.0276439,21.8532998 13.2074235,22.0236173 C13.2699555,22.0832695 13.360051,22.1684283 13.3978994,22.2206755 C13.3353673,22.3301065 13.1416003,22.4197906 12.9383712,22.5140001 C12.6763126,22.6353616 12.3788741,22.7735903 12.1698854,23.0356489 Z" id="Shape"></path>
                                <path d="M15.0759794,5.92861263 C15.0759794,4.80879558 12.8050792,4.29907723 10.6962687,4.29907723 C8.58663541,4.29907723 6.31655807,4.80879558 6.31655807,5.92861263 C6.31655807,7.04842969 8.5870468,7.55814803 10.6962687,7.55814803 C12.8054906,7.55814803 15.0759794,7.04801829 15.0759794,5.92861263 Z M7.13893657,5.93437216 C7.19941163,5.71057331 8.38546327,5.12186713 10.6962687,5.12186713 C13.0070741,5.12186713 14.1931258,5.7109847 14.2531895,5.92244171 C14.1931258,6.14624056 13.0078969,6.73535813 10.6962687,6.73535813 C8.38505188,6.73535813 7.19941163,6.14624056 7.13893657,5.93437216 Z" id="Shape"></path>
                                <rect id="Rectangle-path" x="5.57933832" y="10.4251594" width="10.2334494" height="1"></rect>
                                <rect id="Rectangle-path" x="6.72795302" y="12.9317889" width="7.93663138" height="1"></rect>
                                <rect id="Rectangle-path" x="6.17092426" y="15.2290183" width="9.05068891" height="1"></rect>
                                <polygon id="Shape" points="0.224621643 0.149336367 0.224621643 27.3577642 7.44953976 27.3577642 7.51001482 26.5349743 1.04741154 26.5349743 1.04741154 0.972126268 20.3447145 0.972126268 20.3447145 26.5349743 13.8903391 26.5349743 13.9594535 27.3577642 21.1675044 27.3577642 21.1675044 0.149336367"></polygon>
                            </g>
                            <path d="M25.8425664,0.801055046 L44.5855452,7.88173591 C45.0751726,8.06362794 45.4000244,8.53085061 45.4000244,9.05317208 C45.4000244,9.57549355 45.0751726,10.0427162 44.5855452,10.2246083 L42.4769601,11.0186025 L42.4769601,15.027534 C42.7366545,15.3213406 42.8934707,15.710903 42.8934707,16.1338696 C42.8934707,17.0539833 42.1475002,17.7999122 41.2274282,17.7999122 C40.3073562,17.7999122 39.5613856,17.0539833 39.5613856,16.1338696 C39.5613856,15.710903 39.7182019,15.3213406 39.9778963,15.027534 L39.9778963,11.9687632 L38.3118537,12.5935292 L38.3118537,18.6329334 C38.3118537,19.6900791 37.6668037,20.4124335 36.9321622,21.001796 C36.1975207,21.5912002 35.2468769,22.0927624 34.1076786,22.537679 C31.8294071,23.427554 28.7865886,24.0475301 25.4000239,24.0475301 C22.0134592,24.0475301 18.970642,23.427554 16.6923704,22.537679 C15.5531722,22.0927624 14.6025283,21.5912002 13.8678868,21.001796 C13.1332454,20.4124335 12.4881953,19.6900791 12.4881953,18.6329334 L12.4881953,12.5935292 L6.21450363,10.2246083 C5.72487622,10.0427162 5.40002441,9.57549355 5.40002441,9.05317208 C5.40002441,8.53085061 5.72487622,8.06362794 6.21450363,7.88173591 L24.9574813,0.801055046 C25.1153928,0.741920224 25.2836386,0.715355099 25.4520877,0.722959302 C25.5855849,0.727952447 25.7174179,0.754319041 25.8425664,0.801055046 Z M25.4000238,2.77862098 L8.80507174,9.04432982 L25.4000238,15.3100568 L41.9949773,9.04432982 L25.4000238,2.77862098 Z M25.8910654,17.2926184 C25.5746667,17.4124293 25.2253809,17.4124293 24.9089823,17.2926184 L13.8461065,13.1187421 L13.8461065,18.765743 C13.8461065,18.5600833 13.8461065,18.8339573 14.337148,19.2278998 C14.8281896,19.6218422 15.6740289,20.0934269 16.7490055,20.5132501 C18.8990049,21.3529427 21.9887524,22.000794 25.4000238,22.000794 C28.8112952,22.000794 31.9009979,21.3529427 34.0510436,20.5132501 C35.1260202,20.0934269 35.9718594,19.6218422 36.462901,19.2278998 C36.9539425,18.8339573 36.9539425,18.5600833 36.9539425,18.765743 L36.9539425,13.1187421 L25.8910654,17.2926184 Z" id="Shape" fill="#FFFFFF" fill-rule="nonzero"></path>
                        </g>
                    </g>
                </g>
            </g>
        </g>
    </g>
</svg>