<?xml version="1.0" encoding="UTF-8"?>
<svg width="23px" height="18px" viewBox="0 0 23 18" version="1.1" xmlns="http://www.w3.org/2000/svg" xmlns:xlink="http://www.w3.org/1999/xlink">
    <!-- Generator: Sketch 46 (44423) - http://www.bohemiancoding.com/sketch -->
    <title>twitter</title>
    <desc>Created with Sketch.</desc>
    <defs></defs>
    <g id="Page-1" stroke="none" stroke-width="1" fill="none" fill-rule="evenodd">
        <g id="coin-drive" transform="translate(-595.000000, -9279.000000)" fill="#FFFFFF">
            <g id="footer" transform="translate(-0.000000, 9185.000000)">
                <g id="soc-icons" transform="translate(595.000000, 89.000000)">
                    <path d="M22.125,7.15625 C21.5624972,8.03125437 20.8125047,8.81249656 19.875,9.5 L19.875,10.0625 C19.875,13.3437664 18.6953243,16.3202991 16.3359375,18.9921875 C13.9765507,21.6640759 10.8437695,23 6.9375,23 C4.4374875,23 2.12501063,22.3125069 2.27373675e-13,20.9375 C0.5000025,21.0000003 0.859373906,21.03125 1.078125,21.03125 C3.17188547,21.03125 5.04686672,20.3750066 6.703125,19.0625 C5.73437016,19.0312498 4.85937891,18.7265654 4.078125,18.1484375 C3.29687109,17.5703096 2.76562641,16.8281295 2.484375,15.921875 C2.85937688,15.9843753 3.14062406,16.015625 3.328125,16.015625 C3.64062656,16.015625 4.0468725,15.9531256 4.546875,15.828125 C3.51561984,15.6093739 2.64844102,15.0859416 1.9453125,14.2578125 C1.24218398,13.4296834 0.890625,12.4687555 0.890625,11.375 L0.890625,11.328125 C1.57812844,11.7031269 2.26562156,11.890625 2.953125,11.890625 C1.60936828,11.0156206 0.9375,9.75000828 0.9375,8.09375 C0.9375,7.31249609 1.14062297,6.56250359 1.546875,5.84375 C3.95313703,8.81251484 7.06248094,10.3906241 10.875,10.578125 C10.8124997,10.3593739 10.78125,10.0156273 10.78125,9.546875 C10.78125,8.26561859 11.2187456,7.18750437 12.09375,6.3125 C12.9687544,5.43749563 14.0468686,5 15.328125,5 C16.6093814,5 17.7031205,5.48437016 18.609375,6.453125 C19.5468797,6.29687422 20.51562,5.92187797 21.515625,5.328125 C21.2031234,6.42188047 20.5312552,7.26562203 19.5,7.859375 C20.4687548,7.76562453 21.3437461,7.53125188 22.125,7.15625 Z" id="twitter"></path>
                </g>
            </g>
        </g>
    </g>
</svg>